# xmcd
#
# Track frame offsets:
#	150
#	3830
#	23855
#	40979
#	48587
#	67159
#	84875
#	96627
#	114946
#	130226
#	142383
#	149997
#	170988
#	180048
#	186980
#	206277
#	215164
#	231291
#	245795
#	265687
#	278179
#
# Disc length: 3893 seconds
#
# Revision: 0
# Processed by: cddbd v1.5.1PL2 Copyright (c) Steve Scherf et al.
# Submitted via: dBpowerAMP V4.0
#
DISCID=4a0f3315
DTITLE=GhostFace Killah - Supreme Clientele
DYEAR=1900
DGENRE=Hip Hop
TTITLE0=Intro
TTITLE1=NutMeg
TTITLE2=One
TTITLE3=Saturday Nite
TTITLE4=Ghost Deini
TTITLE5=Apollo Kidz
TTITLE6=The Gain
TTITLE7=Buck 50
TTITLE8=Mighty Healty
TTITLE9=Woodrow The Basehead(skit)
TTITLE10=Stay Truh
TTITLE11=We Made It
TTITLE12=Stroke Of The Dead
TTITLE13=Iron's Theme(Skit)
TTITLE14=Malcom
TTITLE15=Who Would You Fuck
TTITLE16=Childs Play
TTITLE17=Cherchez La Ghost
TTITLE18=Wu Banga
TTITLE19=Clyde Smith(Skit)
TTITLE20=In The Rain
EXTD=
EXTT0=
EXTT1=
EXTT2=
EXTT3=
EXTT4=
EXTT5=
EXTT6=
EXTT7=
EXTT8=
EXTT9=
EXTT10=
EXTT11=
EXTT12=
EXTT13=
EXTT14=
EXTT15=
EXTT16=
EXTT17=
EXTT18=
EXTT19=
EXTT20=
PLAYORDER=
